<svg version="1.0" xmlns="http://www.w3.org/2000/svg"
 width="1141.000000pt" height="248.000000pt" viewBox="0 0 1141.000000 248.000000"
 preserveAspectRatio="xMidYMid meet">
<metadata>
Created by potrace 1.16, written by Peter Selinger 2001-2019
</metadata>
<g transform="translate(0.000000,248.000000) scale(0.100000,-0.100000)"
fill="#D91F27" stroke="none">
<path d="M22 2457 l-22 -23 0 -1195 0 -1196 23 -21 c21 -20 34 -22 143 -22
113 0 122 1 142 23 l22 23 2 802 3 802 220 -745 220 -745 169 2 169 3 228 745
228 745 1 -806 0 -806 23 -21 c22 -20 33 -22 158 -22 129 0 137 1 157 23 l22
23 0 1195 0 1196 -23 21 c-22 21 -32 22 -215 22 l-191 0 -25 -82 c-84 -279
-488 -1607 -494 -1625 -5 -15 -83 234 -262 843 l-255 864 -211 0 c-207 0 -211
0 -232 -23z"/>
<path d="M2222 2457 l-22 -23 0 -1195 0 -1196 23 -21 23 -22 575 0 576 0 21
23 c20 21 22 34 22 153 0 192 47 174 -458 174 l-412 0 0 380 0 380 318 0 319
0 21 23 c20 21 22 34 22 153 0 189 31 174 -363 174 l-317 0 0 335 0 335 388 0
389 0 21 23 c20 21 22 34 22 153 0 123 -1 132 -23 152 l-23 22 -550 0 -551 0
-21 -23z"/>
<path d="M3553 2458 l-23 -24 0 -1195 0 -1196 23 -21 c22 -20 33 -22 163 -22
134 0 142 1 162 23 22 23 22 24 22 505 l0 482 93 0 92 0 279 -505 279 -505
186 0 186 0 18 31 c9 17 17 35 17 40 0 7 -565 976 -615 1055 -13 20 -10 24 40
59 70 48 170 155 214 228 101 170 137 441 86 643 -52 205 -196 346 -406 400
-51 13 -137 17 -429 21 l-365 5 -22 -24z m619 -339 c122 -26 203 -95 232 -198
20 -72 20 -167 1 -250 -48 -200 -201 -310 -432 -311 l-73 0 0 385 0 385 110 0
c60 0 133 -5 162 -11z"/>
<path d="M4902 2457 c-20 -21 -22 -34 -22 -153 0 -189 -33 -174 373 -174 l327
0 0 -1043 0 -1044 23 -21 c22 -20 33 -22 163 -22 134 0 142 1 162 23 l22 23 0
1042 0 1042 323 0 324 0 21 23 c20 21 22 34 22 153 0 123 -1 132 -23 152 l-23
22 -835 0 -836 0 -21 -23z"/>
<path d="M6712 2457 l-22 -23 0 -1195 0 -1196 23 -21 c22 -20 33 -22 163 -22
134 0 142 1 162 23 l22 23 0 517 0 517 323 0 324 0 21 23 c20 21 22 34 22 153
0 189 32 174 -368 174 l-322 0 0 350 0 350 388 0 389 0 21 23 c20 21 22 34 22
153 0 123 -1 132 -23 152 l-23 22 -550 0 -551 0 -21 -23z"/>
<path d="M8022 2457 l-22 -23 0 -1195 0 -1196 23 -21 23 -22 580 0 581 0 21
23 c20 21 22 34 22 153 0 192 47 174 -463 174 l-417 0 0 1043 0 1044 -23 21
c-22 20 -33 22 -163 22 -134 0 -142 -1 -162 -23z"/>
<path d="M9332 2457 l-22 -23 0 -1195 0 -1196 23 -21 c22 -20 33 -22 163 -22
134 0 142 1 162 23 l22 23 0 1195 0 1196 -23 21 c-22 20 -33 22 -163 22 -134
0 -142 -1 -162 -23z"/>
<path d="M9771 2446 l-22 -35 302 -577 c166 -317 302 -582 302 -588 0 -7 -143
-274 -317 -594 l-318 -582 19 -32 19 -33 150 -2 149 -3 240 441 c132 242 242
442 245 444 3 1 111 -197 240 -441 l234 -444 181 0 180 0 19 35 20 36 -41 77
c-23 42 -165 314 -317 604 l-276 528 310 565 309 566 -21 34 -20 35 -146 0
-147 0 -234 -424 -235 -424 -222 421 -222 422 -180 3 -180 2 -21 -34z"/>
</g>
</svg>